<svg width="135" height="32" viewBox="0 0 135 32" fill="none" xmlns="http://www.w3.org/2000/svg">
<path d="M9.01562 30H4.0625L4.09375 26.3438H9.01562C10.2448 26.3438 11.2812 26.0677 12.125 25.5156C12.9688 24.9531 13.6042 24.1354 14.0312 23.0625C14.4688 21.9896 14.6875 20.6927 14.6875 19.1719V18.0625C14.6875 16.8958 14.5625 15.8698 14.3125 14.9844C14.0729 14.099 13.7135 13.3542 13.2344 12.75C12.7552 12.1458 12.1667 11.6927 11.4688 11.3906C10.7708 11.0781 9.96875 10.9219 9.0625 10.9219H3.96875V7.25H9.0625C10.5833 7.25 11.974 7.51042 13.2344 8.03125C14.5052 8.54167 15.6042 9.27604 16.5312 10.2344C17.4583 11.1927 18.1719 12.3385 18.6719 13.6719C19.1823 14.9948 19.4375 16.4688 19.4375 18.0938V19.1719C19.4375 20.7865 19.1823 22.2604 18.6719 23.5938C18.1719 24.9271 17.4583 26.0729 16.5312 27.0312C15.6146 27.9792 14.5156 28.7135 13.2344 29.2344C11.9635 29.7448 10.5573 30 9.01562 30ZM6.71875 7.25V30H2.03125V7.25H6.71875ZM30.3438 30.3125C29.0312 30.3125 27.8542 30.1042 26.8125 29.6875C25.7708 29.2604 24.8854 28.6719 24.1562 27.9219C23.4375 27.1719 22.8854 26.3021 22.5 25.3125C22.1146 24.3125 21.9219 23.25 21.9219 22.125V21.5C21.9219 20.2188 22.1042 19.0469 22.4688 17.9844C22.8333 16.9219 23.3542 16 24.0312 15.2188C24.7188 14.4375 25.5521 13.8385 26.5312 13.4219C27.5104 12.9948 28.6146 12.7812 29.8438 12.7812C31.0417 12.7812 32.1042 12.9792 33.0312 13.375C33.9583 13.7708 34.7344 14.3333 35.3594 15.0625C35.9948 15.7917 36.474 16.6667 36.7969 17.6875C37.1198 18.6979 37.2812 19.8229 37.2812 21.0625V22.9375H23.8438V19.9375H32.8594V19.5938C32.8594 18.9688 32.7448 18.4115 32.5156 17.9219C32.2969 17.4219 31.9635 17.026 31.5156 16.7344C31.0677 16.4427 30.4948 16.2969 29.7969 16.2969C29.2031 16.2969 28.6927 16.4271 28.2656 16.6875C27.8385 16.9479 27.4896 17.3125 27.2188 17.7812C26.9583 18.25 26.7604 18.8021 26.625 19.4375C26.5 20.0625 26.4375 20.75 26.4375 21.5V22.125C26.4375 22.8021 26.5312 23.4271 26.7188 24C26.9167 24.5729 27.1927 25.0677 27.5469 25.4844C27.9115 25.901 28.349 26.224 28.8594 26.4531C29.3802 26.6823 29.9688 26.7969 30.625 26.7969C31.4375 26.7969 32.1927 26.6406 32.8906 26.3281C33.599 26.0052 34.2083 25.5208 34.7188 24.875L36.9062 27.25C36.5521 27.7604 36.0677 28.25 35.4531 28.7188C34.849 29.1875 34.1198 29.5729 33.2656 29.875C32.4115 30.1667 31.4375 30.3125 30.3438 30.3125ZM44.3438 16.5938V30H39.8281V13.0938H44.0625L44.3438 16.5938ZM43.7188 20.9531H42.4688C42.4688 19.776 42.6094 18.6927 42.8906 17.7031C43.1823 16.7031 43.6042 15.8385 44.1562 15.1094C44.7188 14.3698 45.4115 13.7969 46.2344 13.3906C47.0573 12.9844 48.0104 12.7812 49.0938 12.7812C49.8438 12.7812 50.5312 12.8958 51.1562 13.125C51.7812 13.3438 52.3177 13.6927 52.7656 14.1719C53.224 14.6406 53.5781 15.2552 53.8281 16.0156C54.0781 16.7656 54.2031 17.6667 54.2031 18.7188V30H49.7031V19.2188C49.7031 18.4479 49.599 17.8542 49.3906 17.4375C49.1823 17.0208 48.8854 16.7292 48.5 16.5625C48.125 16.3958 47.6719 16.3125 47.1406 16.3125C46.5573 16.3125 46.0469 16.4323 45.6094 16.6719C45.1823 16.9115 44.8281 17.2448 44.5469 17.6719C44.2656 18.0885 44.0573 18.5781 43.9219 19.1406C43.7865 19.7031 43.7188 20.3073 43.7188 20.9531ZM53.7812 20.4375L52.1719 20.6406C52.1719 19.5365 52.3073 18.5104 52.5781 17.5625C52.8594 16.6146 53.2708 15.7812 53.8125 15.0625C54.3646 14.3438 55.0469 13.7865 55.8594 13.3906C56.6719 12.9844 57.6094 12.7812 58.6719 12.7812C59.4844 12.7812 60.224 12.901 60.8906 13.1406C61.5573 13.3698 62.125 13.7396 62.5938 14.25C63.0729 14.75 63.4375 15.4062 63.6875 16.2188C63.9479 17.0312 64.0781 18.026 64.0781 19.2031V30H59.5625V19.2031C59.5625 18.4219 59.4583 17.8281 59.25 17.4219C59.0521 17.0052 58.7604 16.7188 58.375 16.5625C58 16.3958 57.5521 16.3125 57.0312 16.3125C56.4896 16.3125 56.0156 16.4219 55.6094 16.6406C55.2031 16.849 54.8646 17.1406 54.5938 17.5156C54.3229 17.8906 54.1198 18.3281 53.9844 18.8281C53.849 19.3177 53.7812 19.8542 53.7812 20.4375ZM75.3438 30.3125C74.0312 30.3125 72.8542 30.1042 71.8125 29.6875C70.7708 29.2604 69.8854 28.6719 69.1562 27.9219C68.4375 27.1719 67.8854 26.3021 67.5 25.3125C67.1146 24.3125 66.9219 23.25 66.9219 22.125V21.5C66.9219 20.2188 67.1042 19.0469 67.4688 17.9844C67.8333 16.9219 68.3542 16 69.0312 15.2188C69.7188 14.4375 70.5521 13.8385 71.5312 13.4219C72.5104 12.9948 73.6146 12.7812 74.8438 12.7812C76.0417 12.7812 77.1042 12.9792 78.0312 13.375C78.9583 13.7708 79.7344 14.3333 80.3594 15.0625C80.9948 15.7917 81.474 16.6667 81.7969 17.6875C82.1198 18.6979 82.2812 19.8229 82.2812 21.0625V22.9375H68.8438V19.9375H77.8594V19.5938C77.8594 18.9688 77.7448 18.4115 77.5156 17.9219C77.2969 17.4219 76.9635 17.026 76.5156 16.7344C76.0677 16.4427 75.4948 16.2969 74.7969 16.2969C74.2031 16.2969 73.6927 16.4271 73.2656 16.6875C72.8385 16.9479 72.4896 17.3125 72.2188 17.7812C71.9583 18.25 71.7604 18.8021 71.625 19.4375C71.5 20.0625 71.4375 20.75 71.4375 21.5V22.125C71.4375 22.8021 71.5312 23.4271 71.7188 24C71.9167 24.5729 72.1927 25.0677 72.5469 25.4844C72.9115 25.901 73.349 26.224 73.8594 26.4531C74.3802 26.6823 74.9688 26.7969 75.625 26.7969C76.4375 26.7969 77.1927 26.6406 77.8906 26.3281C78.599 26.0052 79.2083 25.5208 79.7188 24.875L81.9062 27.25C81.5521 27.7604 81.0677 28.25 80.4531 28.7188C79.849 29.1875 79.1198 29.5729 78.2656 29.875C77.4115 30.1667 76.4375 30.3125 75.3438 30.3125ZM93.125 13.0938V16.2812H83.2812V13.0938H93.125ZM85.7188 8.92188H90.2188V24.9062C90.2188 25.3958 90.2812 25.7708 90.4062 26.0312C90.5417 26.2917 90.7396 26.474 91 26.5781C91.2604 26.6719 91.5885 26.7188 91.9844 26.7188C92.2656 26.7188 92.5156 26.7083 92.7344 26.6875C92.9635 26.6562 93.1562 26.625 93.3125 26.5938L93.3281 29.9062C92.9427 30.0312 92.526 30.1302 92.0781 30.2031C91.6302 30.276 91.1354 30.3125 90.5938 30.3125C89.6042 30.3125 88.7396 30.151 88 29.8281C87.2708 29.4948 86.7083 28.9635 86.3125 28.2344C85.9167 27.5052 85.7188 26.5469 85.7188 25.3594V8.92188ZM103.469 30.3125C102.156 30.3125 100.979 30.1042 99.9375 29.6875C98.8958 29.2604 98.0104 28.6719 97.2812 27.9219C96.5625 27.1719 96.0104 26.3021 95.625 25.3125C95.2396 24.3125 95.0469 23.25 95.0469 22.125V21.5C95.0469 20.2188 95.2292 19.0469 95.5938 17.9844C95.9583 16.9219 96.4792 16 97.1562 15.2188C97.8438 14.4375 98.6771 13.8385 99.6562 13.4219C100.635 12.9948 101.74 12.7812 102.969 12.7812C104.167 12.7812 105.229 12.9792 106.156 13.375C107.083 13.7708 107.859 14.3333 108.484 15.0625C109.12 15.7917 109.599 16.6667 109.922 17.6875C110.245 18.6979 110.406 19.8229 110.406 21.0625V22.9375H96.9688V19.9375H105.984V19.5938C105.984 18.9688 105.87 18.4115 105.641 17.9219C105.422 17.4219 105.089 17.026 104.641 16.7344C104.193 16.4427 103.62 16.2969 102.922 16.2969C102.328 16.2969 101.818 16.4271 101.391 16.6875C100.964 16.9479 100.615 17.3125 100.344 17.7812C100.083 18.25 99.8854 18.8021 99.75 19.4375C99.625 20.0625 99.5625 20.75 99.5625 21.5V22.125C99.5625 22.8021 99.6562 23.4271 99.8438 24C100.042 24.5729 100.318 25.0677 100.672 25.4844C101.036 25.901 101.474 26.224 101.984 26.4531C102.505 26.6823 103.094 26.7969 103.75 26.7969C104.562 26.7969 105.318 26.6406 106.016 26.3281C106.724 26.0052 107.333 25.5208 107.844 24.875L110.031 27.25C109.677 27.7604 109.193 28.25 108.578 28.7188C107.974 29.1875 107.245 29.5729 106.391 29.875C105.536 30.1667 104.562 30.3125 103.469 30.3125ZM117.469 16.7812V30H112.969V13.0938H117.203L117.469 16.7812ZM122.562 12.9844L122.484 17.1562C122.266 17.125 122 17.099 121.688 17.0781C121.385 17.0469 121.109 17.0312 120.859 17.0312C120.224 17.0312 119.672 17.1146 119.203 17.2812C118.745 17.4375 118.359 17.6719 118.047 17.9844C117.745 18.2969 117.516 18.6771 117.359 19.125C117.214 19.5729 117.13 20.0833 117.109 20.6562L116.203 20.375C116.203 19.2812 116.312 18.276 116.531 17.3594C116.75 16.4323 117.068 15.625 117.484 14.9375C117.911 14.25 118.432 13.7188 119.047 13.3438C119.661 12.9688 120.365 12.7812 121.156 12.7812C121.406 12.7812 121.661 12.8021 121.922 12.8438C122.182 12.875 122.396 12.9219 122.562 12.9844Z" fill="#0A1D2B"/>
<path d="M123.969 27.8281C123.969 27.1615 124.198 26.6042 124.656 26.1562C125.125 25.7083 125.745 25.4844 126.516 25.4844C127.286 25.4844 127.901 25.7083 128.359 26.1562C128.828 26.6042 129.062 27.1615 129.062 27.8281C129.062 28.4948 128.828 29.0521 128.359 29.5C127.901 29.9479 127.286 30.1719 126.516 30.1719C125.745 30.1719 125.125 29.9479 124.656 29.5C124.198 29.0521 123.969 28.4948 123.969 27.8281Z" fill="#0067F4"/>
</svg>
